<?xml version="1.0" encoding="iso-8859-1"?>
<!-- Generator: Adobe Illustrator 19.0.0, SVG Export Plug-In . SVG Version: 6.00 Build 0)  -->
<svg version="1.1" id="Capa_1" xmlns="http://www.w3.org/2000/svg" xmlns:xlink="http://www.w3.org/1999/xlink" x="0px" y="0px"
	 viewBox="0 0 512.576 512.576" style="enable-background:new 0 0 512.576 512.576;" xml:space="preserve">
<path style="fill:#FFD15C;" d="M255.511,323.2c0,0,4.267,21.333,0,39.467c-3.2,12.8-7.467,22.4-3.2,40.533l-19.2,2.133
	c0,0-4.267-10.667-7.467-16c-4.267-5.333-12.8-25.6-2.133-35.2l-3.2-10.667L255.511,323.2z"/>
<path style="fill:#E8EAE8;" d="M228.844,393.6c1.067,1.067,3.2,3.2,5.333,4.267c3.2,2.133,6.4,1.067,10.667-1.067
	c3.2-1.067,5.333-8.533,7.467-12.8c0,0,9.6,16,7.467,28.8c-2.133,12.8-7.467,20.267-7.467,20.267l-19.2-6.4
	C233.111,427.733,236.311,402.133,228.844,393.6z"/>
<g>
	<path style="fill:#FFD15C;" d="M264.044,317.867c0,0-4.267,14.933,5.333,21.333c0,0,0,4.267-1.067,7.467
		c-1.067,3.2,5.333,21.333,5.333,21.333s-7.467,22.4,2.133,67.2l20.267,2.133c0,0,18.133-39.467,12.8-58.667
		c-5.333-20.267-11.733-29.867-6.4-53.333C307.778,302.933,264.044,317.867,264.044,317.867z"/>
	<path style="fill:#FFD15C;" d="M208.578,132.267c0,0,4.267,19.2-14.933,35.2c0,0,12.8,3.2,18.133,7.467c0,0,13.867,2.133,16,0
		s3.2-6.4,5.333-9.6c2.133-3.2,5.333-5.333,5.333-5.333s6.4-5.333,6.4-9.6c0,0,7.467,1.067,4.267,8.533l-4.267,5.333l9.6-4.267
		c0,0,4.267-2.133,5.333,1.067c1.067,2.133-2.133,4.267-2.133,4.267l-7.467,4.267c0,0,11.733-4.267,12.8-2.133
		c1.067,3.2-1.067,4.267-4.267,5.333c-4.267,1.067-9.6,3.2-9.6,3.2s11.733-4.267,13.867-2.133s-5.333,5.333-7.467,5.333
		c-2.133,0-9.6,6.4-9.6,6.4s8.533-1.067,10.667,0c2.133,1.067,4.267,3.2,1.067,4.267C254.444,192,245.911,192,245.911,192
		s-8.533,6.4-17.067,2.133c0,0-11.733-1.067-16,1.067c-5.333,2.133-29.867,1.067-38.4-5.333c-8.533-6.4-3.2-21.333-3.2-21.333
		s5.333-22.4,5.333-25.6s2.133-25.6,12.8-33.067L208.578,132.267z"/>
</g>
<path style="fill:#425A6B;" d="M300.311,213.333c0,0,11.733,18.133,12.8,23.467c1.067,5.333,1.067,12.8-1.067,17.067
	c-2.133,4.267,1.067,9.6,1.067,9.6s1.067,5.333-2.133,9.6c-3.2,5.333,0,20.267,0,20.267s-3.2,25.6-8.533,37.333
	c-7.467-14.933-28.8-7.467-36.267,4.267l-7.467-26.667V323.2c-1.067,11.733-7.467,18.133-16,22.4
	c-2.133,1.067-5.333,2.133-8.533,2.133c-5.333,0-8.533-2.133-11.733-6.4c0,0-6.4-23.467-8.533-32
	c-2.133-8.533-2.133-13.867-2.133-13.867s-4.267-9.6-4.267-12.8c0-2.133-3.2-12.8-5.333-19.2c-3.2-5.333,0-28.8,0-28.8
	L300.311,213.333z"/>
<path style="fill:#FFD15C;" d="M331.244,110.933c0,0,5.333,17.067,6.4,21.333c1.067,4.267,4.267,8.533,4.267,14.933
	s1.067,26.667-1.067,40.533c-2.133,13.867,1.067,22.4,1.067,22.4s0,3.2-3.2,4.267c0,0,4.267,12.8,4.267,19.2
	c0,6.4,0,16-2.133,23.467c0,0-3.2,1.067-3.2-1.067c0,0-4.267,1.067-4.267-2.133l3.2-7.467l-1.067-1.067c0,0,0,4.267-2.133,3.2
	c0,0-4.267,0-2.133-4.267c1.067-4.267,2.133-11.733,1.067-12.8s-3.2-9.6-6.4-10.667c0,0-5.333,4.267-8.533-1.067
	c0,0,2.133-3.2,2.133-5.333c0-2.133,1.067-6.4,5.333-6.4c0,0,0-10.667-2.133-21.333c-3.2-9.6-7.467-29.867-6.4-43.733
	c0,0-8.533-19.2-7.467-29.867C309.911,103.467,331.244,110.933,331.244,110.933z"/>
<g>
	<polygon style="fill:#56BFEB;" points="208.578,132.267 216.044,119.467 208.578,136.533 	"/>
	<polygon style="fill:#56BFEB;" points="310.978,128 308.844,128 303.511,113.067 	"/>
</g>
<g>
	<polygon style="fill:#F5B54C;" points="274.711,54.4 276.844,57.6 276.844,67.2 287.511,72.533 287.511,104.533 233.111,104.533 
		236.311,69.333 240.578,67.2 239.511,45.867 	"/>
	<path style="fill:#F5B54C;" d="M276.844,66.133c0,0,2.133,2.133,3.2,2.133c1.067,1.067-1.067,1.067-1.067,1.067l-3.2-2.133
		C274.711,67.2,276.844,66.133,276.844,66.133z"/>
	<path style="fill:#F5B54C;" d="M240.578,60.8c0,0,0,3.2-2.133,5.333c-2.133,1.067-1.067,5.333-1.067,5.333h6.4
		C244.844,71.467,241.644,61.867,240.578,60.8z"/>
</g>
<path style="fill:#67C5B8;" d="M308.844,128c0,0-4.267,18.133-3.2,24.533c0,6.4-1.067,29.867-1.067,32c0,0,7.467,10.667,5.333,22.4
	c0,0,5.333,17.067,3.2,25.6c0,0-17.067-2.133-23.467,3.2c-6.4,5.333-25.6,7.467-25.6,7.467s-8.533-1.067-14.933,2.133
	c-5.333,3.2-42.667-1.067-49.067-8.533l8.533-42.667c0,0,4.267-27.733-2.133-44.8c1.067-4.267,2.133-7.467,2.133-10.667
	c0-1.067,0-3.2,0-5.333l0,0c-11.733,2.133-22.4-2.133-32-11.733l13.867-26.667c0,0,9.6-11.733,18.133-13.867
	c6.4-1.067,23.467-10.667,29.867-14.933c0,5.333,1.067,9.6,5.333,13.867c7.467,8.533,19.2,12.8,26.667,11.733
	c10.667-2.133,16-16,6.4-24.533l0,0c0,0,16,4.267,32,10.667c14.933,6.4,18.133,7.467,20.267,18.133c2.133,9.6,3.2,16,3.2,16
	c-4.267,10.667-10.667,17.067-20.267,17.067h-3.2V128z"/>
<path style="fill:#FFD15C;" d="M273.644,65.067c-6.4,7.467-5.333,6.4-8.533,7.467c-5.333,2.133-9.6,2.133-14.933,0
	c-2.133-1.067-1.067,0-8.533-7.467c-6.4-7.467-5.333-34.133-5.333-34.133V13.867h41.6v17.067
	C278.978,30.933,280.044,57.6,273.644,65.067z"/>
<path style="fill:#425A6B;" d="M282.178,33.067v1.067c0,2.133-1.067,4.267-2.133,6.4c0,1.067,0,1.067-1.067,2.133
	c0,0,1.067-24.533-6.4-26.667c-7.467-1.067-9.6,1.067-9.6,1.067c-3.2,2.133-6.4,2.133-9.6,0c0,0-2.133-2.133-9.6-1.067
	c-7.467,1.067-6.4,26.667-6.4,26.667c0-1.067,0-1.067-1.067-2.133c-1.067-2.133-1.067-4.267-2.133-6.4v-1.067V32
	c-2.133-8.533,0-17.067,6.4-23.467C245.911,2.133,252.311,0,258.711,0c5.333,0,12.8,2.133,18.133,7.467
	c6.4,6.4,8.533,14.933,6.4,23.467C282.178,32,282.178,32,282.178,33.067z"/>
<g>
	
		<ellipse transform="matrix(0.0781 -0.9969 0.9969 0.0781 211.2948 322.4332)" style="fill:#FFD15C;" cx="279.992" cy="46.966" rx="8.533" ry="3.2"/>
	
		<ellipse transform="matrix(0.0781 0.9969 -0.9969 0.0781 264.4522 -194.2101)" style="fill:#FFD15C;" cx="237.237" cy="45.887" rx="8.533" ry="3.2"/>
	<path style="fill:#FFD15C;" d="M261.911,167.467c-1.067-3.2-12.8,2.133-12.8,2.133l7.467-4.267c0,0,4.267-2.133,2.133-4.267
		c-1.067-2.133-5.333-1.067-5.333-1.067l-9.6,4.267l4.267-5.333c4.267-8.533-4.267-8.533-4.267-8.533c0,4.267-6.4,9.6-6.4,9.6
		s-3.2,1.067-5.333,5.333c-2.133,3.2-3.2,7.467-5.333,9.6c-2.133,2.133-16,0-16,0c-3.2-2.133-8.533-4.267-12.8-5.333v26.667
		c6.4,0,11.733,0,13.867-1.067c5.333-2.133,16-1.067,16-1.067c9.6,4.267,18.133-2.133,18.133-2.133s8.533,0,11.733-1.067
		s1.067-4.267-1.067-4.267c-2.133-1.067-10.667,0-10.667,0s6.4-5.333,8.533-5.333c2.133-1.067,9.6-3.2,7.467-5.333
		c-2.133-2.133-10.667,1.067-12.8,1.067c2.133-1.067,6.4-2.133,9.6-3.2C261.911,171.733,264.044,170.667,261.911,167.467z"/>
</g>
<path style="fill:#425A6B;" d="M251.244,384c0,0,5.333,11.733,3.2,30.933l-1.067,7.467c0,0-4.267,0-7.467-2.133
	c-3.2-2.133-9.6-2.133-9.6-2.133l-3.2-13.867c0,0,1.067,13.867,0,19.2c-1.067,4.267-4.267,14.933-2.133,25.6
	c2.133,10.667,7.467,18.133,12.8,20.267c5.333,2.133,13.867,1.067,16-6.4c2.133-7.467,4.267-18.133,0-28.8
	c0,0-3.2-10.667,1.067-25.6C265.111,394.667,256.578,384,251.244,384z"/>
<g>
	<path style="fill:#344A5E;" d="M251.244,422.4v20.267c0,9.6-10.667,9.6-10.667,0l-1.067-24.533c2.133,0,4.267,1.067,5.333,2.133
		C246.978,422.4,249.111,422.4,251.244,422.4z"/>
	<path style="fill:#344A5E;" d="M257.644,501.333c0,0,7.467,5.333,11.733,5.333c0,0,17.067,11.733,22.4,2.133
		c0,0-13.867-14.933-24.533-11.733C257.644,497.067,257.644,501.333,257.644,501.333z"/>
</g>
<path style="fill:#CED6E0;" d="M262.978,489.6l-2.133,6.4l-3.2,5.333c0,0,8.533-4.267,13.867-1.067
	c5.333,2.133,17.067,8.533,19.2,8.533l1.067-6.4L262.978,489.6z"/>
<path style="fill:#E8EAE8;" d="M274.711,430.933c8.533-1.067,17.067,0,24.533,3.2c0,0-8.533,34.133-5.333,43.733l-2.133,4.267
	c-9.6,1.067-19.2,1.067-22.4-8.533c0,0,0-13.867,6.4-17.067C274.711,456.533,272.578,436.267,274.711,430.933z"/>
<path style="fill:#425A6B;" d="M269.378,466.133c0,0-1.067,9.6,3.2,7.467c0,0,0-10.667,6.4-9.6s8.533,3.2,9.6,7.467
	c1.067,4.267,1.067,6.4,2.133,6.4c1.067-1.067,2.133-6.4,2.133-6.4s2.133,8.533-1.067,22.4c-1.067,4.267,0,5.333,0,6.4
	c1.067,1.067-1.067,2.133-1.067,2.133s-11.733-4.267-12.8-6.4c-2.133-2.133-12.8-3.2-17.067,0c0,0,0-6.4,3.2-9.6
	c1.067-2.133,2.133-5.333,3.2-8.533C266.178,474.667,268.311,470.4,269.378,466.133L269.378,466.133z"/>
<g>
</g>
<g>
</g>
<g>
</g>
<g>
</g>
<g>
</g>
<g>
</g>
<g>
</g>
<g>
</g>
<g>
</g>
<g>
</g>
<g>
</g>
<g>
</g>
<g>
</g>
<g>
</g>
<g>
</g>
</svg>
